<svg id="eRPW9hbEaUK1" xmlns="http://www.w3.org/2000/svg" xmlns:xlink="http://www.w3.org/1999/xlink" viewBox="0 0 211.666670 211.666670" shape-rendering="geometricPrecision" text-rendering="geometricPrecision"><style><![CDATA[#eRPW9hbEaUK99_tr {animation: eRPW9hbEaUK99_tr__tr 3000ms linear infinite normal forwards}@keyframes eRPW9hbEaUK99_tr__tr { 0% {transform: translate(127.026160px,102.355782px) rotate(128.013915deg)} 26.666667% {transform: translate(127.026160px,102.355782px) rotate(146.300436deg)} 43.333333% {transform: translate(127.026160px,102.355782px) rotate(154.422964deg)} 60% {transform: translate(127.026160px,102.355782px) rotate(137.222731deg)} 76.666667% {transform: translate(127.026160px,102.355782px) rotate(154.422964deg)} 100% {transform: translate(127.026160px,102.355782px) rotate(128.013915deg)}} #eRPW9hbEaUK155_ts {animation: eRPW9hbEaUK155_ts__ts 3000ms linear infinite normal forwards}@keyframes eRPW9hbEaUK155_ts__ts { 0% {transform: translate(90.210936px,58.460587px) scale(0.982610,0.433087)} 16.666667% {transform: translate(90.210936px,58.460587px) scale(0.982610,0.433087)} 23.333333% {transform: translate(90.210936px,58.460587px) scale(0.982610,3.674838)} 30% {transform: translate(90.210936px,58.460587px) scale(0.982610,0.433087)} 63.333333% {transform: translate(90.210936px,58.460587px) scale(0.982610,0.244372)} 70% {transform: translate(90.210936px,58.460587px) scale(0.982610,1.623097)} 76.666667% {transform: translate(90.210936px,58.460587px) scale(0.982610,0.244372)} 100% {transform: translate(90.210936px,58.460587px) scale(0.982610,0.244372)}} #eRPW9hbEaUK156_ts {animation: eRPW9hbEaUK156_ts__ts 3000ms linear infinite normal forwards}@keyframes eRPW9hbEaUK156_ts__ts { 0% {transform: translate(90.374907px,70.709362px) scale(0.982610,0.244372)} 16.666667% {transform: translate(90.374907px,70.709362px) scale(0.982610,0.244372)} 23.333333% {transform: translate(90.374907px,70.709362px) scale(0.982610,1.623097)} 30% {transform: translate(90.374907px,70.709362px) scale(0.982610,0.244372)} 63.333333% {transform: translate(90.374907px,70.709362px) scale(0.982610,0.244372)} 70% {transform: translate(90.374907px,70.709362px) scale(0.982610,1.623097)} 76.666667% {transform: translate(90.374907px,70.709362px) scale(0.982610,0.244372)} 100% {transform: translate(90.374907px,70.709362px) scale(0.982610,0.244372)}} #eRPW9hbEaUK164_ts {animation: eRPW9hbEaUK164_ts__ts 3000ms linear infinite normal forwards}@keyframes eRPW9hbEaUK164_ts__ts { 0% {transform: translate(90.210936px,58.460587px) scale(0.982610,0.433087)} 16.666667% {transform: translate(90.210936px,58.460587px) scale(0.982610,0.433087)} 23.333333% {transform: translate(90.210936px,58.460587px) scale(0.982610,3.674838)} 30% {transform: translate(90.210936px,58.460587px) scale(0.982610,0.433087)} 63.333333% {transform: translate(90.210936px,58.460587px) scale(0.982610,0.244372)} 70% {transform: translate(90.210936px,58.460587px) scale(0.982610,1.623097)} 76.666667% {transform: translate(90.210936px,58.460587px) scale(0.982610,0.244372)} 100% {transform: translate(90.210936px,58.460587px) scale(0.982610,0.244372)}} #eRPW9hbEaUK165_ts {animation: eRPW9hbEaUK165_ts__ts 3000ms linear infinite normal forwards}@keyframes eRPW9hbEaUK165_ts__ts { 0% {transform: translate(90.374907px,70.709362px) scale(0.982610,0.244372)} 16.666667% {transform: translate(90.374907px,70.709362px) scale(0.982610,0.244372)} 23.333333% {transform: translate(90.374907px,70.709362px) scale(0.982610,1.623097)} 30% {transform: translate(90.374907px,70.709362px) scale(0.982610,0.244372)} 63.333333% {transform: translate(90.374907px,70.709362px) scale(0.982610,0.244372)} 70% {transform: translate(90.374907px,70.709362px) scale(0.982610,1.623097)} 76.666667% {transform: translate(90.374907px,70.709362px) scale(0.982610,0.244372)} 100% {transform: translate(90.374907px,70.709362px) scale(0.982610,0.244372)}} #eRPW9hbEaUK176_tr {animation: eRPW9hbEaUK176_tr__tr 3000ms linear infinite normal forwards}@keyframes eRPW9hbEaUK176_tr__tr { 0% {transform: translate(161.751266px,87.018940px) rotate(3.107068deg)} 26.666667% {transform: translate(161.751266px,87.018940px) rotate(16.252463deg)} 43.333333% {transform: translate(161.751266px,87.018940px) rotate(34.123363deg)} 60% {transform: translate(161.751266px,87.018940px) rotate(23.508735deg)} 76.666667% {transform: translate(161.751266px,87.018940px) rotate(34.123363deg)} 100% {transform: translate(161.751266px,87.018940px) rotate(3.107068deg)}} #eRPW9hbEaUK177_tr {animation: eRPW9hbEaUK177_tr__tr 3000ms linear infinite normal forwards}@keyframes eRPW9hbEaUK177_tr__tr { 0% {transform: translate(115.387489px,80.853226px) rotate(0deg)} 33.333333% {transform: translate(115.387489px,80.853226px) rotate(-3.289908deg)} 66.666667% {transform: translate(115.387489px,80.853226px) rotate(9.893290deg)} 100% {transform: translate(115.387489px,80.853226px) rotate(0deg)}} #eRPW9hbEaUK195_ts {animation: eRPW9hbEaUK195_ts__ts 3000ms linear infinite normal forwards}@keyframes eRPW9hbEaUK195_ts__ts { 0% {transform: translate(111.743767px,79.443528px) scale(1,1)} 23.333333% {transform: translate(111.743767px,79.443528px) scale(1,1)} 30% {transform: translate(111.743767px,79.443528px) scale(1,14.647972)} 36.666667% {transform: translate(111.743767px,79.443528px) scale(1,1)} 70% {transform: translate(111.743767px,79.443528px) scale(1,1)} 76.666667% {transform: translate(111.743767px,79.443528px) scale(1,14.647972)} 83.333333% {transform: translate(111.743767px,79.443528px) scale(1,1)} 100% {transform: translate(111.743767px,79.443528px) scale(1,1)}} #eRPW9hbEaUK196_ts {animation: eRPW9hbEaUK196_ts__ts 3000ms linear infinite normal forwards}@keyframes eRPW9hbEaUK196_ts__ts { 0% {transform: translate(119.550803px,79.552767px) scale(1,1)} 23.333333% {transform: translate(119.550803px,79.552767px) scale(1,1)} 30% {transform: translate(119.550803px,79.552767px) scale(1,14.647972)} 36.666667% {transform: translate(119.550803px,79.552767px) scale(1,1)} 70% {transform: translate(119.550803px,79.552767px) scale(1,1)} 76.666667% {transform: translate(119.550803px,79.552767px) scale(1,14.647972)} 83.333333% {transform: translate(119.550803px,79.552767px) scale(1,1)} 100% {transform: translate(119.550803px,79.552767px) scale(1,1)}}]]></style><ellipse id="eRPW9hbEaUK2" rx="100.337910" ry="100.337910" transform="matrix(1 0 0 1 105.74090224999999 106.88443525000000)" fill="rgb(42,100,214)" stroke="none" stroke-width="0"/><g id="eRPW9hbEaUK3" transform="matrix(1 0 0 1 -42.89760000000000 0)"><ellipse id="eRPW9hbEaUK4" rx="32.601600" ry="12.675400" transform="matrix(1 0 0 1 144.41399999999999 168.77000000000001)" opacity="0.3" fill="rgb(0,0,0)" fill-opacity="0.8" stroke="none" stroke-width="2.401960" stroke-linecap="round" stroke-linejoin="round"/></g><g id="eRPW9hbEaUK5" transform="matrix(1 0 0 1 -42.89760000000000 0)"><path id="eRPW9hbEaUK6" d="M135.578340,137.267660C135.578340,137.267660,139.781760,141.837370,144.533700,141.509990C149.285640,141.182590,155.329340,134.173530,175.469970,141.108800C175.469970,141.108800,168.052450,136.880330,168.416400,134.076700C168.780350,131.273070,155.067940,122.553240,154.765490,113.063360C154.463040,103.573480,139.074360,107.073380,139.484450,112.874310C139.894550,118.675220,138.613010,138.180680,135.578340,137.267660Z" fill="rgb(13,13,13)" stroke="none" stroke-width="1.188280" stroke-linecap="round"/></g><g id="eRPW9hbEaUK7" transform="matrix(1 0 0 1 -42.89760000000000 0)"><path id="eRPW9hbEaUK8" d="M143.039370,120.421360L144.538750,120.819190C147.084080,121.494550,148.699780,124.119200,147.914150,126.632690L144.659900,137.044190C143.874290,139.557690,141.851160,141.216860,139.305840,140.541500L137.806460,140.143680C135.261130,139.468330,134.326670,137.024420,134.890470,134.452080L137.225880,123.796760C137.789670,121.224430,140.494040,119.746010,143.039370,120.421360Z" opacity="0.997754" fill="rgb(0,34,43)" stroke="none" stroke-width="1.101790" stroke-linecap="round"/><path id="eRPW9hbEaUK9" d="M139.959860,131.258020C143.017380,131.442760,145.071820,134.246320,144.643770,137.530850L142.868080,151.156020C142.440030,154.440540,141.555340,155.637960,138.497830,155.453200C135.440310,155.268450,134.706240,153.973230,134.676810,150.661040L134.554710,136.921200C134.525310,133.609020,136.902340,131.073260,139.959860,131.258020Z" opacity="0.997754" fill="rgb(0,34,43)" stroke="none" stroke-width="1.235680" stroke-linecap="round"/><g id="eRPW9hbEaUK10" transform="matrix(0.89822800000000 0 0 0.89822800000000 0.75096000000000 12.77290000000000)"><path id="eRPW9hbEaUK11" d="M148.957060,154.777700C148.957060,154.777700,156.157020,156.049430,158.130830,155.040800L157.604420,169.847620L138.488770,169.937320C138.488770,169.937320,136.627490,165.643420,138.922210,165.120000C145.831380,163.526300,149.092660,165.582690,148.957060,154.777700Z" opacity="0.997754" fill="rgb(0,0,0)" stroke="none" stroke-width="1.322920" stroke-linecap="round"/><g id="eRPW9hbEaUK12" transform="matrix(-0.48051000000000 0 -0 -0.48051000000000 137.14900000000000 171.11900000000000)"><path id="eRPW9hbEaUK13" d="M0,0L-38.926000,0C-40.769000,0,-42.267000,1.373000,-42.500000,3.122000L-2.116043,3.122000C-1.626043,1.627000,-2.749043,0,-4.405043,0" fill="rgb(80,45,22)" stroke="none" stroke-width="1"/></g><g id="eRPW9hbEaUK14" transform="matrix(-0.48051000000000 0 -0 -0.48051000000000 148.03600000000000 161.48699999999999)"><path id="eRPW9hbEaUK15" d="M0,0C-0.451000,-0.662000,-1.370000,-1.463000,-3.224000,-2.204000C-3.538000,-2.332000,-3.881000,-2.458000,-4.253000,-2.579000L-4.590000,-1.563000C-4.221000,-1.441000,-3.889000,-1.320000,-3.588000,-1.198000C-1.460000,-0.340000,-0.593016,0.846243,-0.436016,1.279243C-0.189016,0.964243,0.016824,0.308000,0.252824,0" fill="rgb(255,255,255)" stroke="none" stroke-width="1"/></g><g id="eRPW9hbEaUK16" transform="matrix(-0.48051000000000 0 -0 -0.48051000000000 149.58099999999999 162.48200000000000)"><path id="eRPW9hbEaUK17" d="M0,0C0,-0.667000,-0.541000,-1.207000,-1.208000,-1.207000C-1.874000,-1.207000,-2.415000,-0.667000,-2.415000,0C-2.415000,0.667000,-1.874000,1.207000,-1.208000,1.207000C-0.541000,1.207000,0,0.667000,0,0" fill="rgb(255,255,255)" stroke="none" stroke-width="1"/></g><g id="eRPW9hbEaUK18" transform="matrix(-0.48051000000000 0 -0 -0.48051000000000 146.99199999999999 162.82800000000000)"><path id="eRPW9hbEaUK19" d="M0,0C-0.504000,-0.533000,-1.326000,-1.123000,-2.664000,-1.678000C-3.036000,-1.839000,-3.444000,-1.989000,-3.898000,-2.139000L-4.234000,-1.119000C-3.813000,-0.980000,-3.434000,-0.841000,-3.098000,-0.701000C-1.734000,-0.136000,-1.033000,0.422000,-0.676000,0.854000C-0.450000,0.562000,-0.226000,0.279000,0,0" fill="rgb(255,255,255)" stroke="none" stroke-width="1"/></g><g id="eRPW9hbEaUK20" transform="matrix(-0.48051000000000 0 -0 -0.48051000000000 148.27099999999999 163.61099999999999)"><path id="eRPW9hbEaUK21" d="M0,0C0,-0.667000,-0.541000,-1.207000,-1.207000,-1.207000C-1.874000,-1.207000,-2.414000,-0.667000,-2.414000,0C-2.414000,0.667000,-1.874000,1.207000,-1.207000,1.207000C-0.541000,1.207000,0,0.667000,0,0" fill="rgb(255,255,255)" stroke="none" stroke-width="1"/></g><g id="eRPW9hbEaUK22" transform="matrix(-0.48051000000000 0 -0 -0.48051000000000 145.87100000000001 164.12700000000001)"><path id="eRPW9hbEaUK23" d="M0,0C-0.504000,-0.516000,-1.309000,-1.073000,-2.582000,-1.606000C-2.958000,-1.767000,-3.372000,-1.925000,-3.834000,-2.074000L-4.167000,-1.056000C-3.741000,-0.916000,-3.361000,-0.772000,-3.021000,-0.630000C-1.802000,-0.121000,-1.159037,0.656881,-0.773037,1.063881C-0.533037,0.792881,0.018460,0.588001,0.264460,0.334001" fill="rgb(255,255,255)" stroke="none" stroke-width="1"/></g><g id="eRPW9hbEaUK24" transform="matrix(-0.48051000000000 0 -0 -0.48051000000000 147.11099999999999 164.87899999999999)"><path id="eRPW9hbEaUK25" d="M0,0C0,-0.666000,-0.540000,-1.207000,-1.207000,-1.207000C-1.873000,-1.207000,-2.414000,-0.666000,-2.414000,0C-2.414000,0.667000,-1.873000,1.207000,-1.207000,1.207000C-0.540000,1.207000,0,0.667000,0,0" fill="rgb(255,255,255)" stroke="none" stroke-width="1"/></g><g id="eRPW9hbEaUK26" transform="matrix(-0.48051000000000 0 -0 -0.48051000000000 148.55400000000000 159.73200000000000)"><path id="eRPW9hbEaUK27" d="M0,0C-0.451000,-0.662000,-1.370000,-1.463000,-3.224000,-2.204000C-3.538000,-2.332000,-3.881000,-2.458000,-4.253000,-2.579000L-4.590000,-1.563000C-4.221000,-1.441000,-3.889000,-1.320000,-3.588000,-1.198000C-1.460000,-0.340000,-0.596351,0.520180,-0.439351,0.953180" fill="rgb(255,255,255)" stroke="none" stroke-width="1"/></g><g id="eRPW9hbEaUK28" transform="matrix(-0.48051000000000 0 -0 -0.48051000000000 150.09800000000001 160.72700000000000)"><path id="eRPW9hbEaUK29" d="M0,0C0,-0.667000,-0.541000,-1.207000,-1.208000,-1.207000C-1.874000,-1.207000,-2.415000,-0.667000,-2.415000,0C-2.415000,0.667000,-1.874000,1.207000,-1.208000,1.207000C-0.541000,1.207000,0,0.667000,0,0" fill="rgb(255,255,255)" stroke="none" stroke-width="1"/></g><g id="eRPW9hbEaUK30" transform="matrix(-0.46274800000000 0.12943800000000 -0.12943800000000 -0.46274800000000 148.73599999999999 158.34000000000000)"><path id="eRPW9hbEaUK31" d="M0,0C-0.451000,-0.662000,-1.370000,-1.463000,-3.224000,-2.204000C-3.538000,-2.332000,-3.881000,-2.458000,-4.253000,-2.579000L-4.590000,-1.563000C-4.221000,-1.441000,-3.889000,-1.320000,-3.588000,-1.198000C-1.460000,-0.340000,-0.877000,0.504000,-0.720000,0.937000C-0.473000,0.622000,-0.453822,0.034280,-0.217822,-0.273720" fill="rgb(255,255,255)" stroke="none" stroke-width="1"/></g><g id="eRPW9hbEaUK32" transform="matrix(-0.46274800000000 0.12943800000000 -0.12943800000000 -0.46274800000000 150.49199999999999 158.88300000000001)"><path id="eRPW9hbEaUK33" d="M0,0C0,-0.667000,-0.541000,-1.207000,-1.208000,-1.207000C-1.874000,-1.207000,-2.415000,-0.667000,-2.415000,0C-2.415000,0.667000,-1.874000,1.207000,-1.208000,1.207000C-0.541000,1.207000,0,0.667000,0,0" fill="rgb(255,255,255)" stroke="none" stroke-width="1"/></g><g id="eRPW9hbEaUK34" transform="matrix(-0.41978200000000 0.23382200000000 -0.23382200000000 -0.41978200000000 148.98699999999999 157.03800000000001)"><path id="eRPW9hbEaUK35" d="M0,0C-0.451000,-0.662000,-1.370000,-1.463000,-3.224000,-2.204000C-3.538000,-2.332000,-3.881000,-2.458000,-4.253000,-2.579000L-4.590000,-1.563000C-4.221000,-1.441000,-3.889000,-1.320000,-3.588000,-1.198000C-1.460000,-0.340000,-0.704662,0.629297,-0.547662,1.062297C-0.300662,0.747297,-0.236000,0.308000,0,0" fill="rgb(255,255,255)" stroke="none" stroke-width="1"/></g><g id="eRPW9hbEaUK36" transform="matrix(-0.41978200000000 0.23382200000000 -0.23382200000000 -0.41978200000000 150.81999999999999 157.15600000000001)"><path id="eRPW9hbEaUK37" d="M0,0C0,-0.667000,-0.541000,-1.207000,-1.208000,-1.207000C-1.874000,-1.207000,-2.415000,-0.667000,-2.415000,0C-2.415000,0.667000,-1.874000,1.207000,-1.208000,1.207000C-0.541000,1.207000,0,0.667000,0,0" fill="rgb(255,255,255)" stroke="none" stroke-width="1"/></g></g></g><g id="eRPW9hbEaUK38" transform="matrix(1 0 0 1 -42.89760000000000 0)"><path id="eRPW9hbEaUK39" d="M150.879000,119.975800L152.388500,119.618280C154.951000,119.011370,157.614780,120.561700,158.109480,123.148220L160.158600,133.862270C160.653250,136.448790,159.653690,138.866780,157.091170,139.473710L155.581690,139.831220C153.019180,140.438130,151.041220,138.725360,150.323220,136.191730L147.349070,125.696770C146.631060,123.163150,148.316500,120.582720,150.879000,119.975800Z" opacity="0.997754" fill="rgb(0,34,43)" stroke="none" stroke-width="1.101790" stroke-linecap="round"/><path id="eRPW9hbEaUK40" d="M155.003140,130.928490C158.066210,130.940390,160.275620,133.623500,160.033650,136.926970L159.029820,150.630640C158.787950,153.934110,157.972140,155.179530,154.909080,155.167640C151.846000,155.155740,151.040000,153.904020,150.823650,150.598790L149.926240,136.887740C149.709890,133.582510,151.940060,130.916630,155.003130,130.928500Z" opacity="0.997754" fill="rgb(0,34,43)" stroke="none" stroke-width="1.235680" stroke-linecap="round"/><g id="eRPW9hbEaUK41" transform="matrix(0.89822800000000 0 0 0.89822800000000 0.75096000000000 12.77290000000000)"><g id="eRPW9hbEaUK42" transform="matrix(-0.48051000000000 0 -0 -0.48051000000000 164.10800000000000 170.07100000000000)"><path id="eRPW9hbEaUK43" d="M-25.217000,-2.438000C-26.541000,-1.643000,-27.096000,-0.109000,-27.199000,1.746000C-27.367000,4.705000,-26.393000,8.491000,-25.550000,11.458000C-24.178000,16.290000,-24.600688,28.192869,-25.208774,32.890446C-25.208774,32.890446,-17.226640,29.467466,-6.337864,32.595396C-6.327769,22.600551,-7.699572,15.587178,-6.499572,13.015178C-5.401572,10.659178,-3.766782,7.452000,-3.324782,1.653000C-3.282782,1.125000,-3.400967,0.805662,-3.303782,-0C-8.733171,-6.834196,-25.217000,-2.438000,-25.217000,-2.438000Z" fill="rgb(0,0,0)" stroke="none" stroke-width="1"/></g><g id="eRPW9hbEaUK44" transform="matrix(1 0 0 1 0 -0.00002800000000)"><g id="eRPW9hbEaUK45" transform="matrix(-0.39924900000000 0 -0 -0.37642200000000 173.67400000000001 166.28600000000000)"><path id="eRPW9hbEaUK46" d="M0,0L-0.562000,0.862000C-0.301000,1.032000,5.900000,5.008000,11.296000,2.642000L10.883000,1.700000C5.990000,3.846000,0.060000,0.039000,0,0" fill="rgb(255,255,255)" stroke="none" stroke-width="1"/></g><g id="eRPW9hbEaUK47" transform="matrix(-0.39924900000000 0 -0 -0.37642200000000 173.32300000000001 166.06700000000001)"><path id="eRPW9hbEaUK48" d="M0,0C0,-0.640000,-0.519000,-1.157000,-1.158000,-1.157000C-1.797000,-1.157000,-2.315000,-0.640000,-2.315000,0C-2.315000,0.640000,-1.797000,1.157000,-1.158000,1.157000C-0.519000,1.157000,0,0.640000,0,0" fill="rgb(255,255,255)" stroke="none" stroke-width="1"/></g><g id="eRPW9hbEaUK49" transform="matrix(-0.39924900000000 0 -0 -0.37642200000000 168.78399999999999 165.43799999999999)"><path id="eRPW9hbEaUK50" d="M0,0C0,-0.640000,-0.519000,-1.157000,-1.157000,-1.157000C-1.797000,-1.157000,-2.314000,-0.640000,-2.314000,0C-2.314000,0.639000,-1.797000,1.157000,-1.157000,1.157000C-0.519000,1.157000,0,0.639000,0,0" fill="rgb(255,255,255)" stroke="none" stroke-width="1"/></g></g><g id="eRPW9hbEaUK51" transform="matrix(-0.48051000000000 0 -0 -0.48051000000000 164.10800000000000 170.07100000000000)"><path id="eRPW9hbEaUK52" d="M-3.303782,0C-3.646782,-6.858000,-21.787000,-4.496000,-25.217000,-2.438000C-26.541000,-1.643000,-27.096000,-0.109000,-27.199000,1.746000C-24.945000,0.460000,-20.975000,-1.142000,-15.045000,-1.248000C-7.771000,-1.379000,-5.827782,0.093000,-3.324782,1.653000" fill="rgb(80,45,22)" stroke="none" stroke-width="1"/></g><g id="eRPW9hbEaUK53" transform="matrix(1 0 0 1 0 -0.37378900000000)"><g id="eRPW9hbEaUK54" transform="matrix(-0.39924900000000 0 -0 -0.37642200000000 173.96700000000001 164.56600000000000)"><path id="eRPW9hbEaUK55" d="M0,0L-0.562000,0.862000C-0.301000,1.032000,5.900000,5.008000,11.296000,2.642000L10.883000,1.700000C5.990000,3.846000,0.060000,0.039000,0,0" fill="rgb(255,255,255)" stroke="none" stroke-width="1"/></g><g id="eRPW9hbEaUK56" transform="matrix(-0.39924900000000 0 -0 -0.37642200000000 173.61600000000001 164.34600000000000)"><path id="eRPW9hbEaUK57" d="M0,0C0,-0.640000,-0.519000,-1.157000,-1.158000,-1.157000C-1.797000,-1.157000,-2.315000,-0.640000,-2.315000,0C-2.315000,0.640000,-1.797000,1.157000,-1.158000,1.157000C-0.519000,1.157000,0,0.640000,0,0" fill="rgb(255,255,255)" stroke="none" stroke-width="1"/></g><g id="eRPW9hbEaUK58" transform="matrix(-0.39924900000000 0 -0 -0.37642200000000 169.07700000000000 163.71799999999999)"><path id="eRPW9hbEaUK59" d="M0,0C0,-0.640000,-0.519000,-1.157000,-1.157000,-1.157000C-1.797000,-1.157000,-2.314000,-0.640000,-2.314000,0C-2.314000,0.639000,-1.797000,1.157000,-1.157000,1.157000C-0.519000,1.157000,0,0.639000,0,0" fill="rgb(255,255,255)" stroke="none" stroke-width="1"/></g></g><g id="eRPW9hbEaUK60" transform="matrix(1 0 0 1 0 -0.11679300000000)"><g id="eRPW9hbEaUK61" transform="matrix(-0.39720700000000 0.04032600000000 -0.03802000000000 -0.37449600000000 174.06000000000000 162.22399999999999)"><path id="eRPW9hbEaUK62" d="M0,0L-0.562000,0.862000C-0.301000,1.032000,5.900000,5.008000,11.296000,2.642000L10.883000,1.700000C5.990000,3.846000,0.060000,0.039000,0,0" fill="rgb(255,255,255)" stroke="none" stroke-width="1"/></g><g id="eRPW9hbEaUK63" transform="matrix(-0.39720700000000 0.04032600000000 -0.03802000000000 -0.37449600000000 173.69000000000000 162.04200000000000)"><path id="eRPW9hbEaUK64" d="M0,0C0,-0.640000,-0.519000,-1.157000,-1.158000,-1.157000C-1.797000,-1.157000,-2.315000,-0.640000,-2.315000,0C-2.315000,0.640000,-1.797000,1.157000,-1.158000,1.157000C-0.519000,1.157000,0,0.640000,0,0" fill="rgb(255,255,255)" stroke="none" stroke-width="1"/></g><g id="eRPW9hbEaUK65" transform="matrix(-0.39720700000000 0.04032600000000 -0.03802000000000 -0.37449600000000 169.11000000000001 161.87500000000000)"><path id="eRPW9hbEaUK66" d="M0,0C0,-0.640000,-0.519000,-1.157000,-1.157000,-1.157000C-1.797000,-1.157000,-2.314000,-0.640000,-2.314000,0C-2.314000,0.639000,-1.797000,1.157000,-1.157000,1.157000C-0.519000,1.157000,0,0.639000,0,0" fill="rgb(255,255,255)" stroke="none" stroke-width="1"/></g></g><g id="eRPW9hbEaUK67" transform="matrix(1 0 0 1 0 0.64416100000000)"><g id="eRPW9hbEaUK68" transform="matrix(-0.39720700000000 0.04032600000000 -0.03802000000000 -0.37449600000000 174.15299999999999 159.67300000000000)"><path id="eRPW9hbEaUK69" d="M0,0L-0.562000,0.862000C-0.301000,1.032000,5.900000,5.008000,11.296000,2.642000L10.883000,1.700000C5.990000,3.846000,0.060000,0.039000,0,0" fill="rgb(255,255,255)" stroke="none" stroke-width="1"/></g><g id="eRPW9hbEaUK70" transform="matrix(-0.39720700000000 0.04032600000000 -0.03802000000000 -0.37449600000000 173.78200000000001 159.49000000000001)"><path id="eRPW9hbEaUK71" d="M0,0C0,-0.640000,-0.519000,-1.157000,-1.158000,-1.157000C-1.797000,-1.157000,-2.315000,-0.640000,-2.315000,0C-2.315000,0.640000,-1.797000,1.157000,-1.158000,1.157000C-0.519000,1.157000,0,0.640000,0,0" fill="rgb(255,255,255)" stroke="none" stroke-width="1"/></g><g id="eRPW9hbEaUK72" transform="matrix(-0.39720700000000 0.04032600000000 -0.03802000000000 -0.37449600000000 169.20200000000000 159.32300000000001)"><path id="eRPW9hbEaUK73" d="M0,0C0,-0.640000,-0.519000,-1.157000,-1.157000,-1.157000C-1.797000,-1.157000,-2.314000,-0.640000,-2.314000,0C-2.314000,0.639000,-1.797000,1.157000,-1.157000,1.157000C-0.519000,1.157000,0,0.639000,0,0" fill="rgb(255,255,255)" stroke="none" stroke-width="1"/></g></g><g id="eRPW9hbEaUK74" transform="matrix(1 0 0 1 0 0.22081500000000)"><g id="eRPW9hbEaUK75" transform="matrix(-0.39720700000000 0.04032600000000 -0.03802000000000 -0.37449600000000 174.22100000000000 158.30500000000001)"><path id="eRPW9hbEaUK76" d="M0,0L-0.562000,0.862000C-0.301000,1.032000,5.900000,5.008000,11.296000,2.642000L10.883000,1.700000C5.990000,3.846000,0.060000,0.039000,0,0" fill="rgb(255,255,255)" stroke="none" stroke-width="1"/></g><g id="eRPW9hbEaUK77" transform="matrix(-0.39720700000000 0.04032600000000 -0.03802000000000 -0.37449600000000 173.85100000000000 158.12299999999999)"><path id="eRPW9hbEaUK78" d="M0,0C0,-0.640000,-0.519000,-1.157000,-1.158000,-1.157000C-1.797000,-1.157000,-2.315000,-0.640000,-2.315000,0C-2.315000,0.640000,-1.797000,1.157000,-1.158000,1.157000C-0.519000,1.157000,0,0.640000,0,0" fill="rgb(255,255,255)" stroke="none" stroke-width="1"/></g><g id="eRPW9hbEaUK79" transform="matrix(-0.39720700000000 0.04032600000000 -0.03802000000000 -0.37449600000000 169.27099999999999 157.95500000000001)"><path id="eRPW9hbEaUK80" d="M0,0C0,-0.640000,-0.519000,-1.157000,-1.157000,-1.157000C-1.797000,-1.157000,-2.314000,-0.640000,-2.314000,0C-2.314000,0.639000,-1.797000,1.157000,-1.157000,1.157000C-0.519000,1.157000,0,0.639000,0,0" fill="rgb(255,255,255)" stroke="none" stroke-width="1"/></g></g><g id="eRPW9hbEaUK81"><g id="eRPW9hbEaUK82" transform="matrix(-0.39720700000000 0.04032600000000 -0.03802000000000 -0.37449600000000 174.22000000000000 156.73500000000001)"><path id="eRPW9hbEaUK83" d="M0,0L-0.562000,0.862000C-0.301000,1.032000,5.900000,5.008000,11.296000,2.642000L10.883000,1.700000C5.990000,3.846000,0.060000,0.039000,0,0" fill="rgb(255,255,255)" stroke="none" stroke-width="1"/></g><g id="eRPW9hbEaUK84" transform="matrix(-0.39720700000000 0.04032600000000 -0.03802000000000 -0.37449600000000 173.84899999999999 156.55300000000000)"><path id="eRPW9hbEaUK85" d="M0,0C0,-0.640000,-0.519000,-1.157000,-1.158000,-1.157000C-1.797000,-1.157000,-2.315000,-0.640000,-2.315000,0C-2.315000,0.640000,-1.797000,1.157000,-1.158000,1.157000C-0.519000,1.157000,0,0.640000,0,0" fill="rgb(255,255,255)" stroke="none" stroke-width="1"/></g><g id="eRPW9hbEaUK86" transform="matrix(-0.39720700000000 0.04032600000000 -0.03802000000000 -0.37449600000000 169.27000000000001 156.38499999999999)"><path id="eRPW9hbEaUK87" d="M0,0C0,-0.640000,-0.519000,-1.157000,-1.157000,-1.157000C-1.797000,-1.157000,-2.314000,-0.640000,-2.314000,0C-2.314000,0.639000,-1.797000,1.157000,-1.157000,1.157000C-0.519000,1.157000,0,0.639000,0,0" fill="rgb(255,255,255)" stroke="none" stroke-width="1"/></g></g></g></g><g id="eRPW9hbEaUK88" transform="matrix(1 0 0 1 -42.89760000000000 0)"><path id="eRPW9hbEaUK89" d="M144.323010,76.700094C141.935780,77.334073,142.359620,78.963734,142.435460,81.174610C142.435460,81.174610,143.266480,89.585272,141.709260,92.632809C138.180730,99.538225,141.325300,101.950600,145.098640,102.336790C148.871980,102.723000,152.242620,97.145195,150.321510,94.202177C148.400400,91.259156,146.613580,85.661270,147.121040,80.840974C147.390630,78.280192,145.755670,76.753612,144.323010,76.700094Z" fill="rgb(255,153,85)" stroke="none" stroke-width="1.455010" stroke-linecap="round"/></g><g id="eRPW9hbEaUK90" display="none" transform="matrix(1 0 0 1 -42.89760000000000 0)"><path id="eRPW9hbEaUK91" d="M121.455050,74.035726C122.025620,74.594766,122.034920,75.504168,121.475950,76.074745L120.061530,77.518356C119.502490,78.088932,118.593090,78.098224,118.022500,77.539186C117.451940,76.980145,117.442640,76.070744,118.001600,75.500167L119.416010,74.056556C119.975060,73.485979,120.884460,73.476688,121.455040,74.035726Z" opacity="0.997754" fill="rgb(255,179,128)" stroke="none" stroke-width="1.361810" stroke-linecap="round"/><path id="eRPW9hbEaUK92" d="M116.002160,69.907430C116.617400,69.702053,117.245750,69.935260,117.411020,70.430322L118.527860,73.776026C118.693120,74.271087,118.330870,74.834980,117.715630,75.040357C117.100390,75.245735,116.472040,75.012527,116.306770,74.517467L115.189920,71.171761C115.024670,70.676699,115.386920,70.112808,116.002160,69.907430Z" opacity="0.997754" fill="rgb(255,179,128)" stroke="none" stroke-width="1.288940" stroke-linecap="round"/><path id="eRPW9hbEaUK93" d="M113.010360,68.936234C113.625610,68.730857,114.253940,68.964064,114.419210,69.459129L115.919480,73.953437C116.084740,74.448498,115.722480,75.012388,115.107250,75.217765C114.492010,75.423145,113.863670,75.189935,113.698400,74.694874L112.198110,70.200566C112.032860,69.705505,112.395120,69.141614,113.010360,68.936234Z" opacity="0.997754" fill="rgb(255,179,128)" stroke="none" stroke-width="1.425890" stroke-linecap="round"/><path id="eRPW9hbEaUK94" d="M111.040460,71.026299C111.655700,70.820922,112.284040,71.054129,112.449290,71.549194L113.843830,75.726732C114.009080,76.221792,113.646840,76.785683,113.031600,76.991060C112.416360,77.196440,111.788010,76.963230,111.622760,76.468168L110.228210,72.290631C110.062950,71.795570,110.425210,71.231680,111.040460,71.026299Z" opacity="0.997754" fill="rgb(255,179,128)" stroke="none" stroke-width="1.389470" stroke-linecap="round"/><rect id="eRPW9hbEaUK95" width="5.495410" height="7.047000" rx="1.441879" ry="1.441879" transform="matrix(0.94854500000000 -0.31664200000000 0.31664200000000 0.94854500000000 114.01799277000001 80.05639091600000)" opacity="0.997754" fill="rgb(255,153,85)" stroke="none" stroke-width="0.936529" stroke-linecap="round"/><rect id="eRPW9hbEaUK96" width="7.393590" height="7.047000" rx="1.441879" ry="1.441879" transform="matrix(0.94854500000000 -0.31664200000000 0.31664200000000 0.94854500000000 111.24913379500001 75.34890550960000)" opacity="0.997754" fill="rgb(255,179,128)" stroke="none" stroke-width="1.086290" stroke-linecap="round"/></g><g id="eRPW9hbEaUK97" transform="matrix(1 0 0 1 -42.89760000000000 0)"><path id="eRPW9hbEaUK98" d="M136.076270,90.298126C137.806940,91.707232,137.963450,94.348909,136.427210,96.221175L130.412010,103.552040C128.875770,105.424310,126.245710,105.797170,124.515030,104.388040C122.784350,102.978980,122.627840,100.337280,124.164100,98.465015L130.179300,91.134150C131.715540,89.261873,134.345610,88.889019,136.076270,90.298126Z" opacity="0.997754" fill="rgb(26,39,26)" stroke="none" stroke-width="1.404310" stroke-linecap="round"/><g id="eRPW9hbEaUK99_tr" transform="translate(127.026160,102.355782) rotate(128.013915)"><g id="eRPW9hbEaUK99" transform="skewX(0.061535) skewY(0) scale(0.898226,0.809576) translate(-225.142873,-84.382322)"><g id="eRPW9hbEaUK100" transform="matrix(-0.96748832566669 -0.25291567705198 0.25291567705198 -0.96748832566669 317.78728918222350 221.62356984215648)"><path id="eRPW9hbEaUK101" d="M121.455050,74.035726C122.025620,74.594766,122.034920,75.504168,121.475950,76.074745L120.061530,77.518356C119.502490,78.088932,118.593090,78.098224,118.022500,77.539186C117.451940,76.980145,117.442640,76.070744,118.001600,75.500167L119.416010,74.056556C119.975060,73.485979,120.884460,73.476688,121.455040,74.035726Z" opacity="0.997754" fill="rgb(255,179,128)" stroke="none" stroke-width="1.361810" stroke-linecap="round"/><path id="eRPW9hbEaUK102" d="M116.002160,69.907430C116.617400,69.702053,117.245750,69.935260,117.411020,70.430322L118.527860,73.776026C118.693120,74.271087,118.330870,74.834980,117.715630,75.040357C117.100390,75.245735,116.472040,75.012527,116.306770,74.517467L115.189920,71.171761C115.024670,70.676699,115.386920,70.112808,116.002160,69.907430Z" opacity="0.997754" fill="rgb(255,179,128)" stroke="none" stroke-width="1.288940" stroke-linecap="round"/><path id="eRPW9hbEaUK103" d="M113.010360,68.936234C113.625610,68.730857,114.253940,68.964064,114.419210,69.459129L115.919480,73.953437C116.084740,74.448498,115.722480,75.012388,115.107250,75.217765C114.492010,75.423145,113.863670,75.189935,113.698400,74.694874L112.198110,70.200566C112.032860,69.705505,112.395120,69.141614,113.010360,68.936234Z" opacity="0.997754" fill="rgb(255,179,128)" stroke="none" stroke-width="1.425890" stroke-linecap="round"/><path id="eRPW9hbEaUK104" d="M111.040460,71.026299C111.655700,70.820922,112.284040,71.054129,112.449290,71.549194L113.843830,75.726732C114.009080,76.221792,113.646840,76.785683,113.031600,76.991060C112.416360,77.196440,111.788010,76.963230,111.622760,76.468168L110.228210,72.290631C110.062950,71.795570,110.425210,71.231680,111.040460,71.026299Z" opacity="0.997754" fill="rgb(255,179,128)" stroke="none" stroke-width="1.389470" stroke-linecap="round"/><rect id="eRPW9hbEaUK105" width="5.495410" height="7.047000" rx="1.441879" ry="1.441879" transform="matrix(0.94854500000000 -0.31664200000000 0.31664200000000 0.94854500000000 114.01799277000001 80.05639091600000)" opacity="0.997754" fill="rgb(255,153,85)" stroke="none" stroke-width="0.936529" stroke-linecap="round"/><rect id="eRPW9hbEaUK106" width="7.393590" height="7.047000" rx="1.441879" ry="1.441879" transform="matrix(0.94854500000000 -0.31664200000000 0.31664200000000 0.94854500000000 111.24913379500001 75.34890550960000)" opacity="0.997754" fill="rgb(255,179,128)" stroke="none" stroke-width="1.086290" stroke-linecap="round"/></g><path id="eRPW9hbEaUK107" d="M224.578060,80.792550C227.062400,80.754290,229.102440,82.893851,229.118890,85.590072L229.241380,105.671630C229.272680,108.367730,227.297820,110.569020,224.813460,110.607280C222.329140,110.645580,220.289090,108.506000,220.272640,105.809760L220.150150,85.728202C220.118850,83.032111,222.093720,80.830807,224.578060,80.792550Z" opacity="0.997754" fill="rgb(26,39,26)" stroke="none" stroke-width="1.563420" stroke-linecap="round"/><g id="eRPW9hbEaUK108" transform="matrix(1 0 0 1 0 10.58330000000000)"><path id="eRPW9hbEaUK109" d="M219.465790,95.439476L230.244270,95.439476L230.244270,101.557190L219.465790,101.557190Z" opacity="0.997754" fill="rgb(26,39,26)" stroke="none" stroke-width="1.433510" stroke-linecap="round"/><path id="eRPW9hbEaUK110" d="M219.465790,99.630150L230.244270,99.630150L230.244270,100.495780L219.465790,100.495780Z" opacity="0.997754" fill="rgb(128,128,0)" stroke="none" stroke-width="0.539227" stroke-linecap="round"/><path id="eRPW9hbEaUK111" d="M219.465790,98.258026L230.244270,98.258026L230.244270,99.123652L219.465790,99.123652Z" opacity="0.997754" fill="rgb(128,128,0)" stroke="none" stroke-width="0.539226" stroke-linecap="round"/></g></g></g></g><g id="eRPW9hbEaUK112" transform="matrix(1 0 0 1 -42.89760000000000 0)"><path id="eRPW9hbEaUK113" d="M144.871650,97.248635L142.189340,91.112133C142.189340,91.112133,133.226630,86.964521,132.902780,91.164303C131.798190,105.489220,138.062620,120.885990,138.062620,120.885990C138.093120,122.241360,141.672640,120.499820,144.951390,121.951150C147.068230,122.893460,158.728450,120.693330,158.141240,119.546430C155.100570,113.607560,162.727070,91.930555,158.286760,89.563337C154.114670,87.339106,147.930910,90.460007,147.930910,90.460007Z" opacity="0.997754" fill="rgb(128,0,0)" stroke="none" stroke-width="1.188280" stroke-linecap="round"/><path id="eRPW9hbEaUK114" d="M136.995770,121.997260C143.250400,124.266140,158.528360,121.910060,158.528360,121.910060L157.860400,118.300340C148.905070,120.564640,137.211610,119.107590,137.211610,119.107590Z" opacity="0.997754" fill="rgb(0,34,43)" stroke="none" stroke-width="1.188280" stroke-linecap="round"/><path id="eRPW9hbEaUK115" d="M142.244260,120.000570L139.126390,88.870038L136.542300,88.965508L140.455330,120.200670Z" opacity="0.997754" fill="rgb(0,0,0)" stroke="rgb(255,153,85)" stroke-width="0" stroke-linecap="round"/><path id="eRPW9hbEaUK116" d="M149.264710,120.017940L151.050030,88.782644L153.635840,88.767704L151.060540,120.141490Z" opacity="0.997754" fill="rgb(0,0,0)" stroke="rgb(255,153,85)" stroke-width="0" stroke-linecap="round"/><path id="eRPW9hbEaUK117" d="M151.326740,120.040110C151.336932,120.278460,151.230730,120.512007,151.031499,120.689372C150.832267,120.866736,150.556326,120.973390,150.264380,120.985870C149.656446,121.011854,149.146421,120.630568,149.125200,120.134240C149.103983,119.637911,149.579606,119.214487,150.187540,119.188490C150.795477,119.162497,151.305513,119.543779,151.326740,120.040110Z" opacity="0.997754" fill="rgb(128,128,0)" stroke="none" stroke-width="1.447520" stroke-linecap="round"/><path id="eRPW9hbEaUK118" d="M142.421180,119.841090C142.421182,120.079657,142.305103,120.308453,142.098479,120.477146C141.891855,120.645839,141.611612,120.740610,141.319400,120.740610C140.710905,120.740605,140.217626,120.337877,140.217630,119.841090C140.217633,119.344307,140.710909,118.941585,141.319400,118.941580C141.927894,118.941580,142.421177,119.344304,142.421180,119.841090Z" opacity="0.997754" fill="rgb(128,128,0)" stroke="none" stroke-width="1.447520" stroke-linecap="round"/><path id="eRPW9hbEaUK119" d="M131.022160,90.040899C133.082740,87.933883,139.555890,89.649928,141.309030,90.101819C143.062160,90.553719,146.843370,100.860730,139.175390,123.384070C139.175390,123.384070,135.777610,129.466430,135.198350,134.732450C133.359960,134.868290,136.034330,124.830210,135.469370,117.589430C134.879820,108.218860,128.364600,97.627165,131.022160,90.040891Z" fill="rgb(27,50,27)" stroke="none" stroke-width="1.188280" stroke-linecap="round"/><path id="eRPW9hbEaUK120" d="M147.022000,93.242971C147.266920,86.825468,157.522880,86.522058,159.467840,88.657276C164.189020,93.840290,155.787160,103.901740,158.917610,114.790330C162.128670,125.959240,173.328220,132.892980,176.680700,132.182850C180.033190,131.472720,170.155110,133.580040,171.144470,135.539820C172.133820,137.499590,177.444500,141.050220,177.444500,141.050220C177.444500,141.050220,163.963460,144.327340,157.207200,135.496840C150.450940,126.666350,146.777080,99.660475,147.022000,93.242971Z" fill="rgb(27,50,27)" stroke="none" stroke-width="1.188280" stroke-linecap="round"/><path id="eRPW9hbEaUK121" d="M151.444380,110.861770C151.444378,111.358552,151.111965,111.761274,150.701910,111.761280C150.291851,111.761281,149.959432,111.358557,149.959430,110.861770C149.959432,110.364983,150.291851,109.962259,150.701910,109.962260C151.111965,109.962266,151.444378,110.364988,151.444380,110.861770Z" opacity="0.997754" fill="rgb(128,128,0)" stroke="none" stroke-width="1.188280" stroke-linecap="round"/><path id="eRPW9hbEaUK122" d="M153.526050,117.903550C153.635288,118.388177,153.399562,118.854141,152.999540,118.944310C152.599518,119.034478,152.186681,118.714707,152.077440,118.230080C151.968207,117.745456,152.203932,117.279500,152.603950,117.189330C153.003969,117.099161,153.416806,117.418927,153.526050,117.903550Z" opacity="0.997754" fill="rgb(128,128,0)" stroke="none" stroke-width="1.188280" stroke-linecap="round"/><path id="eRPW9hbEaUK123" d="M155.593320,123.417280C155.702558,123.901904,155.466837,124.367865,155.066820,124.458040C154.874720,124.501343,154.669648,124.450420,154.496719,124.316474C154.323789,124.182527,154.197167,123.976530,154.144710,123.743800C154.035472,123.259173,154.271198,122.793209,154.671220,122.703040C154.863319,122.659740,155.068388,122.710665,155.241315,122.844611C155.414243,122.978557,155.540863,123.184552,155.593320,123.417280Z" opacity="0.997754" fill="rgb(128,128,0)" stroke="none" stroke-width="1.188280" stroke-linecap="round"/><path id="eRPW9hbEaUK124" d="M142.121010,110.232180L138.547550,109.520230L140.388030,110.512390Z" opacity="0.997754" fill="rgb(27,33,27)" stroke="none" stroke-width="1.334350" stroke-linecap="round"/><path id="eRPW9hbEaUK125" d="M140.751100,115.925590L137.203770,115.093250L139.009660,116.147050Z" opacity="0.997754" fill="rgb(27,33,27)" stroke="none" stroke-width="1.334350" stroke-linecap="round"/><path id="eRPW9hbEaUK126" d="M139.049170,121.005010L136.212890,120.172660L137.656800,121.226470Z" opacity="0.997754" fill="rgb(27,33,27)" stroke="none" stroke-width="1.193150" stroke-linecap="round"/></g><g id="eRPW9hbEaUK127" transform="matrix(1 0 0 1 -42.89760000000000 0)"><path id="eRPW9hbEaUK128" d="M164.719760,129.247210C164.082050,128.766170,163.955920,127.865510,164.436960,127.227800L165.654020,125.614320C166.135060,124.976600,167.035710,124.850460,167.673440,125.331490C168.311160,125.812530,168.437300,126.713200,167.956260,127.350920L166.739190,128.964400C166.258150,129.602110,165.357480,129.728250,164.719760,129.247210Z" opacity="0.997754" fill="rgb(255,153,85)" stroke="none" stroke-width="1.361810" stroke-linecap="round"/><path id="eRPW9hbEaUK129" d="M170.658180,132.640160C170.074450,132.922920,169.421330,132.772450,169.193790,132.302750L167.656050,129.128410C167.428510,128.658710,167.715150,128.052910,168.298990,127.770150C168.882720,127.487360,169.535840,127.637840,169.763380,128.107560L171.301120,131.281900C171.528660,131.751610,171.241920,132.357380,170.658180,132.640160Z" opacity="0.997754" fill="rgb(255,153,85)" stroke="none" stroke-width="1.288940" stroke-linecap="round"/><path id="eRPW9hbEaUK130" d="M173.750020,133.218640C173.166300,133.501410,172.513180,133.350920,172.285640,132.881220L170.219970,128.617100C169.992430,128.147400,170.279170,127.541610,170.862900,127.258850C171.446640,126.976070,172.099740,127.126560,172.327290,127.596260L174.392960,131.860360C174.620500,132.330070,174.333860,132.935870,173.750020,133.218640Z" opacity="0.997754" fill="rgb(255,153,85)" stroke="none" stroke-width="1.425890" stroke-linecap="round"/><path id="eRPW9hbEaUK131" d="M175.434850,130.892650C174.851120,131.175420,174.198010,131.024930,173.970470,130.555230L172.050410,126.591660C171.822860,126.121960,172.109510,125.516170,172.693330,125.233400C173.277070,124.950620,173.930180,125.101100,174.157720,125.570810L176.077800,129.534380C176.305330,130.004090,176.018600,130.609870,175.434850,130.892650Z" opacity="0.997754" fill="rgb(255,153,85)" stroke="none" stroke-width="1.389470" stroke-linecap="round"/><rect id="eRPW9hbEaUK132" width="5.495410" height="7.047000" rx="1.441879" ry="1.441879" transform="matrix(-0.89996200000000 0.43596900000000 -0.43596900000000 -0.89996200000000 171.32050355400006 122.32036106199998)" opacity="0.997754" fill="rgb(255,153,85)" stroke="none" stroke-width="0.936529" stroke-linecap="round"/><rect id="eRPW9hbEaUK133" width="7.393590" height="7.047000" rx="1.441879" ry="1.441879" transform="matrix(-0.89996200000000 0.43596900000000 -0.43596900000000 -0.89996200000000 174.67180678400004 126.63269728199997)" opacity="0.997754" fill="rgb(255,153,85)" stroke="none" stroke-width="1.086290" stroke-linecap="round"/></g><g id="eRPW9hbEaUK134" transform="matrix(1 0 0 1 -42.89760000000000 0)"><path id="eRPW9hbEaUK135" d="M156.556680,88.146561C158.642900,87.353815,161.008060,88.540812,161.859730,90.807992L165.194450,99.685145C166.046130,101.952330,165.052230,104.415740,162.965990,105.208480C160.879780,106.001250,158.514610,104.814240,157.662940,102.547050L154.328210,93.669896C153.476540,91.402721,154.470450,88.939303,156.556680,88.146561Z" opacity="0.997754" fill="rgb(27,50,27)" stroke="none" stroke-width="1.404310" stroke-linecap="round"/><g id="eRPW9hbEaUK136" transform="matrix(0.84846900000000 -0.29480600000000 0.26653100000000 0.76444500000000 -51.84480000000000 102.40400000000000)"><path id="eRPW9hbEaUK137" d="M224.578060,80.792550C227.062400,80.754290,229.102440,82.893851,229.118890,85.590072L229.241380,105.671630C229.272680,108.367730,227.297820,110.569020,224.813460,110.607280C222.329140,110.645580,220.289090,108.506000,220.272640,105.809760L220.150150,85.728202C220.118850,83.032111,222.093720,80.830807,224.578060,80.792550Z" opacity="0.997754" fill="rgb(27,50,27)" stroke="none" stroke-width="1.563420" stroke-linecap="round"/><g id="eRPW9hbEaUK138" transform="matrix(1 0 0 1 0 10.58330000000000)"><path id="eRPW9hbEaUK139" d="M219.465790,95.439476L230.244270,95.439476L230.244270,101.557190L219.465790,101.557190Z" opacity="0.997754" fill="rgb(27,50,27)" stroke="none" stroke-width="1.433510" stroke-linecap="round"/><path id="eRPW9hbEaUK140" d="M219.465790,99.630150L230.244270,99.630150L230.244270,100.495780L219.465790,100.495780Z" opacity="0.997754" fill="rgb(128,128,0)" stroke="none" stroke-width="0.539227" stroke-linecap="round"/><path id="eRPW9hbEaUK141" d="M219.465790,98.258026L230.244270,98.258026L230.244270,99.123652L219.465790,99.123652Z" opacity="0.997754" fill="rgb(128,128,0)" stroke="none" stroke-width="0.539226" stroke-linecap="round"/></g></g></g><g id="eRPW9hbEaUK142" transform="matrix(1 0 0 1 -42.89760000000000 0)"><path id="eRPW9hbEaUK143" d="M146.916490,92.653139C146.916490,92.653139,149.056020,88.745537,146.472350,88.031253C143.882860,87.315364,151.513350,83.463758,151.513350,83.463758L162.660020,84.004696L153.360380,92.419208L157.408020,92.482838C153.064400,98.486374,149.923130,99.252305,149.077670,111.060230C149.077670,111.060230,146.230750,98.493140,146.916490,92.653144Z" opacity="0.997754" fill="rgb(27,33,27)" stroke="none" stroke-width="1.142630" stroke-linecap="round"/><path id="eRPW9hbEaUK144" d="M143.007330,92.310642C143.007330,92.310642,141.329810,89.413634,143.984920,87.797699C146.640010,86.181765,130.213410,81.692253,125.455560,82.602519L136.345240,93.375408L133.304860,93.225086C133.304860,93.225086,142.946920,106.757040,142.417750,110.293720C141.888590,113.830400,145.713970,102.397170,143.007330,92.310642Z" opacity="0.997754" fill="rgb(27,33,27)" stroke="none" stroke-width="1.188280" stroke-linecap="round"/></g><g id="eRPW9hbEaUK145" transform="matrix(1 0 0 1 -42.89760000000000 0)"><path id="eRPW9hbEaUK146" d="M142.916130,36.761551C142.916130,36.761551,128.258990,38.086370,125.821710,49.682738C123.384410,61.279108,122.060060,75.802096,126.923500,82.292727C131.786950,88.783356,143.275970,90.552021,147.137790,89.313956C150.999620,88.075891,167.174020,86.170417,170.601810,71.720844C174.029590,57.271272,171.644250,46.352329,163.011710,40.005196C154.379180,33.658063,142.916130,36.761551,142.916130,36.761551Z" fill="rgb(255,179,128)" stroke="none" stroke-width="1.415020" stroke-linecap="round"/><path id="eRPW9hbEaUK147" d="M155.834870,48.711055L161.941070,50.075922C161.941070,50.075922,166.930650,54.884661,163.580770,59.032658C164.273160,74.522256,168.789230,73.682455,170.332480,72.914925C171.875720,72.147396,178.341770,48.073674,162.245280,40.448434C146.148780,32.823197,155.834870,48.711055,155.834870,48.711055Z" transform="matrix(1 0 0 1 -0.03305741000000 0.14157146999992)" opacity="0.999" fill="rgb(172,147,147)" stroke="none" stroke-width="1.415020" stroke-linecap="round"/><path id="eRPW9hbEaUK148" d="M154.441400,34.639580C154.441400,34.639580,153.135580,26.890874,156.422400,25.222331C159.709210,23.553787,161.170850,22.886368,162.142800,23.373585C163.114740,23.860801,166.049130,26.380300,163.144420,30.401484C160.239700,34.422670,158.325490,38.487238,154.441400,34.639580Z" opacity="0.999" fill="rgb(26,26,26)" stroke="none" stroke-width="1.415020" stroke-linecap="round"/><path id="eRPW9hbEaUK149" d="M135.012180,41.129199L127.859820,44.786643C127.859820,44.786643,129.889040,39.814387,138.447380,37.565192C147.005720,35.315996,135.012180,41.129199,135.012180,41.129199Z" opacity="0.999" fill="rgb(172,147,147)" stroke="none" stroke-width="1.415020" stroke-linecap="round"/><path id="eRPW9hbEaUK150" d="M139.688660,35.346626C139.688660,35.346626,130.911450,37.872799,134.328110,44.363429C137.744760,50.854059,151.504140,51.317912,153.347880,50.633809C155.191610,49.949706,170.446010,47.660466,165.014970,37.819405C159.583920,27.978345,139.688660,35.346626,139.688660,35.346626Z" opacity="0.999" fill="rgb(0,0,0)" stroke="none" stroke-width="1.415020" stroke-linecap="round"/><g id="eRPW9hbEaUK151" transform="matrix(0.81818200000000 0 0 1 23.04700000000000 0)"><circle id="eRPW9hbEaUK152" r="5.144490" transform="matrix(1 0 0 1 134.81299999999999 64.88470000000000)" fill="rgb(255,255,255)" fill-rule="evenodd" stroke="none" stroke-width="0.485069"/><circle id="eRPW9hbEaUK153" r="2.650190" transform="matrix(1 0 0 1 134.96500000000000 65.79150000000000)" fill="rgb(128,51,0)" fill-rule="evenodd" stroke="none" stroke-width="0.249884"/><g id="eRPW9hbEaUK154" transform="matrix(1.35819635848587 0 0 1 11.49780681342985 0)"><g id="eRPW9hbEaUK155_ts" transform="translate(90.210936,58.460587) scale(0.982610,0.433087)"><path id="eRPW9hbEaUK155" d="M0,0L8.871319,0L8.871319,2.452882L0,2.452882L0,0Z" transform="translate(-4.268787,-0)" fill="rgb(254,178,128)" stroke="none" stroke-width="0"/></g><g id="eRPW9hbEaUK156_ts" transform="translate(90.374907,70.709362) scale(0.982610,0.244372)"><path id="eRPW9hbEaUK156" d="M0,0L8.871319,0L8.871319,2.452882L0,2.452882L0,0Z" transform="translate(-4.435660,-2.452882)" fill="rgb(254,178,128)" stroke="none" stroke-width="0"/></g></g></g><path id="eRPW9hbEaUK157" d="M141.370480,62.350987C138.194220,69.374494,132.690300,74.013432,141.546940,74.052673" opacity="0.999" fill="none" stroke="rgb(255,153,85)" stroke-width="1.415020" stroke-linecap="round"/><path id="eRPW9hbEaUK158" d="M163.387520,59.130465C163.387520,59.130465,165.076880,55.984330,167.984170,57.664409C170.891490,59.344488,168.444290,63.997698,167.551130,64.422174C166.657950,64.846650,165.870790,67.124208,166.315130,67.837616C166.759460,68.551028,164.481430,69.535532,164.037100,68.451151C163.592780,67.366768,164.151970,64.766167,163.387520,59.130465Z" opacity="0.999" fill="rgb(255,179,128)" stroke="none" stroke-width="1.509230" stroke-linecap="round"/><path id="eRPW9hbEaUK159" d="M127.401580,58.125550L128.819290,59.145518L130.024880,57.395235L131.479220,58.571702L133.069380,57.089109L134.017060,58.372649L135.756770,56.577065L136.171860,58.350685L138.016870,56.840637L139.228570,58.703485L141.152930,57.281295L140.692060,59.097471L139.103420,56.898294L138.010760,58.328719L136.597630,56.647075L135.372200,58.147515L134.038420,56.678649L133.130420,58.294401L131.535680,57.183830L130.357560,58.781733L128.335530,57.520156L127.778510,59.355553L127.078050,58.755651L129.202330,57.484466L130.926780,58.537382L132.101850,57.223640L134.763310,58.148887L136.126080,56.631976L137.262990,58.006121L138.404490,56.843382L139.982430,58.625238L141.294850,58.102214L140.019070,57.160491L138.746330,58.391868L137.336240,56.758269L133.615700,58.218899L130.681080,57.278551L128.790290,58.485217L128.305000,59.565586L127.026160,59.116689Z" fill="none" stroke="none" stroke-width="1.415020" stroke-linecap="round"/><g id="eRPW9hbEaUK160" transform="matrix(0.81818200000000 0 0 1 39.57170000000000 0.52916700000000)"><circle id="eRPW9hbEaUK161" r="5.144490" transform="matrix(1 0 0 1 134.81299999999999 64.88470000000000)" fill="rgb(255,255,255)" fill-rule="evenodd" stroke="none" stroke-width="0.485069"/><circle id="eRPW9hbEaUK162" r="2.650190" transform="matrix(1 0 0 1 134.96500000000000 65.79150000000000)" fill="rgb(128,51,0)" fill-rule="evenodd" stroke="none" stroke-width="0.249884"/><g id="eRPW9hbEaUK163" transform="matrix(1.35819635848587 0 0 1 11.49780681342985 0)"><g id="eRPW9hbEaUK164_ts" transform="translate(90.210936,58.460587) scale(0.982610,0.433087)"><path id="eRPW9hbEaUK164" d="M0,0L8.871319,0L8.871319,2.452882L0,2.452882L0,0Z" transform="translate(-4.268787,-0)" fill="rgb(254,178,128)" stroke="none" stroke-width="0"/></g><g id="eRPW9hbEaUK165_ts" transform="translate(90.374907,70.709362) scale(0.982610,0.244372)"><path id="eRPW9hbEaUK165" d="M0,0L8.871319,0L8.871319,2.452882L0,2.452882L0,0Z" transform="translate(-4.435660,-2.452882)" fill="rgb(254,178,128)" stroke="none" stroke-width="0"/></g></g></g><path id="eRPW9hbEaUK166" d="M126.340330,59.443229C126.405130,59.168146,133.093350,55.504864,141.320030,59.522899C141.320030,59.522899,142.377910,58.735229,141.774130,57.594306C141.170350,56.453382,138.641770,54.235687,134.884720,54.957705C131.127690,55.679722,125.728250,56.263977,126.340330,59.443231Z" fill="rgb(0,0,0)" stroke="none" stroke-width="1.545870" stroke-linecap="round"/><path id="eRPW9hbEaUK167" d="M158.825410,60.033652C158.760610,59.758569,152.072400,56.095287,143.845700,60.113312C143.845700,60.113312,142.787830,59.325642,143.391620,58.184718C143.995380,57.043795,146.523970,54.826100,150.281000,55.548118C154.038060,56.270136,159.437500,56.854390,158.825410,60.033645Z" fill="rgb(0,0,0)" stroke="none" stroke-width="1.545870" stroke-linecap="round"/><path id="eRPW9hbEaUK168" d="M134.735090,87.716283C134.735090,87.716283,138.122950,85.945414,140.622640,86.307825C143.122340,86.670236,145.847890,88.534454,146.247710,89.402048C146.647540,90.269638,136.899050,90.802273,134.735090,87.716283Z" fill="rgb(0,0,0)" stroke="none" stroke-width="1.415020" stroke-linecap="round"/><path id="eRPW9hbEaUK169" d="M165.451250,59.830518C165.451250,59.830518,167.344890,59.547192,167.344890,61.234615" opacity="0.997754" fill="none" stroke="rgb(255,153,85)" stroke-width="0.849009" stroke-linecap="round"/><path id="eRPW9hbEaUK170" d="M164.676320,63.707807L166.398410,60.449737" opacity="0.997754" fill="none" stroke="rgb(255,153,85)" stroke-width="0.849009" stroke-linecap="round"/><path id="eRPW9hbEaUK171" d="M156.119290,49.317842C156.119290,49.317842,156.634940,50.021179,158.966750,49.677885C158.966750,49.677885,157.488180,50.707150,154.380600,49.763475C151.273010,48.819805,156.119290,49.317837,156.119290,49.317837Z" fill="rgb(0,0,0)" stroke="none" stroke-width="2.381250" stroke-linecap="round" stroke-linejoin="round"/><path id="eRPW9hbEaUK172" d="M151.874350,50.161982C151.874350,50.161982,152.299980,51.554788,154.224680,50.874969C154.224680,50.874969,153.004250,52.913204,150.439220,51.044461C147.874180,49.175729,151.874350,50.161973,151.874350,50.161973Z" fill="rgb(0,0,0)" stroke="none" stroke-width="3.044410" stroke-linecap="round" stroke-linejoin="round"/><path id="eRPW9hbEaUK173" d="M162.945590,45.249781C162.945590,45.249781,163.854620,46.737372,165.915230,45.376513C165.915230,45.376513,165.080780,48.102159,161.519460,46.699796C157.958130,45.297446,162.945590,45.249769,162.945590,45.249769Z" fill="rgb(0,0,0)" stroke="none" stroke-width="3.664160" stroke-linecap="round" stroke-linejoin="round"/></g><g id="eRPW9hbEaUK174" transform="matrix(1 0 0 1 -42.89760000000000 0)"><path id="eRPW9hbEaUK175" d="M155.628650,94.971352C155.628650,94.971352,151.514340,90.820733,154.501390,86.455333" fill="none" stroke="rgb(255,255,255)" stroke-width="2.547030" stroke-linecap="round" stroke-linejoin="round"/><g id="eRPW9hbEaUK176_tr" transform="translate(161.751266,87.018940) rotate(3.107068)"><path id="eRPW9hbEaUK176" d="M154.954520,87.183861C154.954520,87.183861,158.736330,86.694834,160.064240,87.807266C162.282030,89.665184,165.111530,89.507618,168.548020,85.107872" transform="translate(-161.751266,-87.018940)" fill="none" stroke="rgb(255,255,255)" stroke-width="2.547030" stroke-linecap="round" stroke-linejoin="round"/></g></g><g id="eRPW9hbEaUK177_tr" transform="translate(115.387489,80.853226) rotate(0)"><g id="eRPW9hbEaUK177" transform="translate(-115.387489,-80.853226)"><g id="eRPW9hbEaUK178" transform="matrix(1 0 0 1 -42.89760000000000 0)"><g id="eRPW9hbEaUK179" transform="matrix(0.28586900000000 0 0 0.29029000000000 139.52799999999999 58.39730000000000)"><path id="eRPW9hbEaUK180" d="M37.872705,75.901404C37.579219,75.225084,29.031635,68.311273,30.323600,56.147639C30.323600,56.147639,40.275678,49.900774,51.801997,58.018158C51.801997,58.018158,50.723555,66.116672,48.127764,68.918048C45.360784,71.904173,37.872705,75.901404,37.872705,75.901404Z" fill="rgb(204,204,204)" stroke="none" stroke-width="0" stroke-linecap="round"/><path id="eRPW9hbEaUK181" d="M30.114398,56.226609C30.114398,56.226609,46.606203,64.189598,37.826172,75.756076C37.826172,75.756076,52.554225,72.556867,51.898403,58.097520C51.898403,58.097520,42.333920,49.787377,30.114398,56.226609Z" opacity="0.997754" fill="rgb(255,127,42)" stroke="none" stroke-width="1.058330" stroke-linecap="round" stroke-linejoin="round"/></g></g><g id="eRPW9hbEaUK182" transform="matrix(1 0 0 1 -42.89760000000000 0)"><g id="eRPW9hbEaUK183" transform="matrix(0.28586900000000 0 0 0.29029000000000 139.69200000000001 58.56590000000000)"><path id="eRPW9hbEaUK184" d="M78.376355,56.769301C78.376355,56.769301,81.806042,51.130966,100.367150,51.646599C100.367150,51.646599,102.388800,62.734180,92.621884,72.155786C92.621884,72.155786,83.359426,69.592157,80.679235,66.452410C78.596609,64.012689,78.376355,56.769301,78.376355,56.769301Z" fill="rgb(204,204,204)" stroke="none" stroke-width="0" stroke-linecap="round"/><path id="eRPW9hbEaUK185" d="M92.651736,72.348549C88.463638,60.665253,100.285070,51.637710,100.285070,51.637710C82.267984,50.813318,78.132026,56.785462,78.132026,56.785462C78.132026,56.785462,75.848951,68.307293,92.651736,72.348549Z" opacity="0.997754" fill="rgb(255,127,42)" stroke="none" stroke-width="1.058330" stroke-linecap="round" stroke-linejoin="round"/></g></g><g id="eRPW9hbEaUK186" transform="matrix(1 0 0 1 -42.89760000000000 0)"><path id="eRPW9hbEaUK187" d="M436.625000,281.199220C419.711446,281.248702,405.903889,292.459938,405.443360,306.517580C405.122620,307.926300,404.417190,309.625230,402.814450,310.445310C400.541180,311.608480,405.272010,311.164650,406.642580,314.458980C408.013110,317.753300,403.273440,319.144530,403.273440,319.144530C403.273440,319.144530,406.457510,319.001580,411.652340,322.798830C417.561275,329.378504,426.858200,333.253790,436.734380,333.253910C444.815886,333.254021,452.584305,330.655447,458.414060,326.001950C458.414060,326.001950,458.416060,325.999950,458.416060,325.999950C459.134401,325.426529,459.819423,324.824935,460.468790,324.197220C466.560410,319.183090,470.376990,319.349560,470.376990,319.349560C470.376990,319.349560,465.637320,317.958330,467.007850,314.664010C468.378420,311.369680,473.109250,311.813510,470.835980,310.650340C467.848150,309.121530,467.937540,304.501900,467.937540,304.501900C467.937540,304.501900,467.885540,304.633700,467.882840,304.640570C466.284901,291.333710,452.818393,281.199209,436.734410,281.199170C436.697950,281.199117,436.661490,281.199117,436.625030,281.199170Z" transform="matrix(0.26458300000000 0 0 0.26458300000000 42.89760000000000 0)" fill="rgb(255,255,255)" stroke="none" stroke-width="1.152280" stroke-linecap="round" stroke-linejoin="round"/><path id="eRPW9hbEaUK188" d="M158.732160,83.814548C158.732827,83.814583,158.733494,83.814624,158.734160,83.814670C158.746264,83.815099,158.758234,83.817392,158.769660,83.821470C158.831889,83.843472,158.864884,83.912428,158.843460,83.975705C158.839460,83.992025,158.831660,84.006545,158.826060,84.022225C158.914860,84.235103,159.015800,84.334751,159.108090,84.376612C159.214530,84.424892,159.331170,84.408162,159.455560,84.351932C159.704340,84.239468,159.932490,83.972985,159.932490,83.972985C159.974978,83.921836,160.050198,83.915206,160.100730,83.958155C160.125063,83.978892,160.140275,84.008604,160.143014,84.040741C160.145753,84.072879,160.135793,84.104803,160.115330,84.129476C160.115330,84.129476,159.875970,84.428012,159.553240,84.573914C159.391870,84.646854,159.196260,84.682411,159.010400,84.598114C158.891320,84.544094,158.785550,84.444628,158.695650,84.295219C158.608250,84.433674,158.506420,84.526719,158.392710,84.578300C158.206860,84.662600,158.011840,84.626690,157.850470,84.553740C157.527720,84.407838,157.288250,84.109302,157.288250,84.109302C157.245828,84.058123,157.252132,83.981749,157.302350,83.938454C157.326647,83.917682,157.358080,83.907573,157.389723,83.910355C157.421365,83.913137,157.450620,83.928581,157.471040,83.953284C157.471040,83.953284,157.699180,84.219292,157.947970,84.331758C158.072360,84.387988,158.188660,84.404708,158.295100,84.356438C158.384500,84.315858,158.482310,84.219994,158.569190,84.020322C158.566190,84.011922,158.562190,84.004472,158.560190,83.995882C158.549755,83.965429,158.551670,83.932013,158.565513,83.902994C158.579355,83.873976,158.603990,83.851735,158.633990,83.841172C158.643701,83.837911,158.653783,83.835928,158.663990,83.835272C158.684106,83.821543,158.707854,83.814342,158.732090,83.814622Z" opacity="0.997754" fill="rgb(255,128,128)" stroke="none" stroke-width="0.241123" stroke-linecap="round"/><ellipse id="eRPW9hbEaUK189" rx="1.629950" ry="1.368720" transform="matrix(1 0 0 1 154.66300000000001 81.05150000000000)" opacity="0.997754" fill="rgb(0,68,170)" stroke="none" stroke-width="0" stroke-linecap="round"/><path id="eRPW9hbEaUK190" d="M156.648400,74.739863L154.690870,78.977943C154.654370,79.054203,154.686870,79.146050,154.760670,79.183184C154.835670,79.220244,154.926220,79.188484,154.962790,79.112304L156.767900,75.345906C156.848700,75.580654,156.975310,75.965856,157.242470,76.600049C157.411810,77.001986,157.599470,77.408133,157.787420,77.728890C157.881320,77.889270,157.974980,78.028669,158.071050,78.137677C158.167150,78.246688,158.263770,78.333574,158.395440,78.360498C158.540150,78.390088,158.666720,78.315348,158.771190,78.219888C158.875700,78.124428,158.972810,77.995037,159.071030,77.840017C159.267480,77.529977,159.464230,77.117710,159.642200,76.702671C159.921390,76.051647,160.053150,75.645501,160.140250,75.391832L161.796270,79.377079C161.828770,79.455209,161.917530,79.491740,161.994490,79.458719C162.071490,79.425689,162.107390,79.335574,162.074890,79.257444L160.273150,74.768762C160.219150,74.638818,160.091760,74.334805,159.990640,74.779032C159.990640,74.779032,159.713900,75.765992,159.364740,76.580264C159.190150,76.987399,158.996770,77.390221,158.817010,77.673951C158.727010,77.815818,158.639570,77.927639,158.569100,77.992022C158.498700,78.056402,158.459630,78.059812,158.455150,78.058942C158.437750,78.055442,158.371850,78.017852,158.296570,77.932508C158.221370,77.847168,158.135390,77.721826,158.047560,77.571912C157.871890,77.272085,157.686920,76.874388,157.520500,76.479356C157.187660,75.689295,156.927550,74.758068,156.927550,74.758068C156.847150,74.559013,156.775270,74.428366,156.648370,74.739918Z" opacity="0.997754" fill="rgb(255,127,42)" stroke="none" stroke-width="0.304874" stroke-linecap="round" stroke-linejoin="round"/><path id="eRPW9hbEaUK191" d="M155.987540,83.291474L153.295620,82.758778L153.637070,83.112080L152.945110,83.263813Z" opacity="0.997754" fill="rgb(255,127,42)" stroke="none" stroke-width="0.304874" stroke-linecap="round" stroke-linejoin="round"/><path id="eRPW9hbEaUK192" d="M159.648240,82.901292C159.648240,83.262221,159.198100,83.998336,158.637370,83.998336C158.076630,83.998336,157.617610,83.262221,157.617610,82.901292C157.617610,82.540360,158.072180,82.247768,158.632930,82.247768C159.193650,82.247768,159.648240,82.540360,159.648240,82.901292Z" fill="rgb(255,128,128)" stroke="none" stroke-width="0.432229" stroke-linecap="round" stroke-linejoin="round"/><ellipse id="eRPW9hbEaUK193" rx="1.629950" ry="1.368720" transform="matrix(-1 0 0 1 162.42099999999999 81.18470000000001)" opacity="0.997754" fill="rgb(0,68,170)" stroke="none" stroke-width="0" stroke-linecap="round"/><path id="eRPW9hbEaUK194" d="M161.095880,83.424653L163.787800,82.891957L163.446350,83.245259L164.138310,83.396992Z" opacity="0.997754" fill="rgb(255,127,42)" stroke="none" stroke-width="0.304874" stroke-linecap="round" stroke-linejoin="round"/></g><g id="eRPW9hbEaUK195_ts" transform="translate(111.743767,79.443528) scale(1,1)"><rect id="eRPW9hbEaUK195" width="4.446219" height="0.218479" rx="0" ry="0" transform="translate(-2.218302,0)" fill="rgb(255,254,254)" stroke="none" stroke-width="0"/></g><g id="eRPW9hbEaUK196_ts" transform="translate(119.550803,79.552767) scale(1,1)"><rect id="eRPW9hbEaUK196" width="4.446219" height="0.218479" rx="0" ry="0" transform="translate(-2.218302,0)" fill="rgb(255,254,254)" stroke="none" stroke-width="0"/></g></g></g></svg>